<svg id="Layer_1" data-name="Layer 1" xmlns="http://www.w3.org/2000/svg" xmlns:xlink="http://www.w3.org/1999/xlink" viewBox="0 0 1920 1080">
<defs>
<style>.cls-1{fill:url(#linear-gradient);}.cls-2{fill:#d0def8;}.cls-3{fill:url(#linear-gradient-2);}</style>
    <linearGradient id="linear-gradient" x1="959.5" y1="543.8" x2="959.5" y2="1089.8" 
    gradientTransform="matrix(1, 0, 0, -1, 0, 1082)" gradientUnits="userSpaceOnUse">
        <stop offset="0.1" stop-color="#e9f0ff"/>
        <stop offset="0.54" stop-color="#dfeaff"/>
        <stop offset="0.73" stop-color="#dce7fd"/>
        <stop offset="0.9" stop-color="#d1dff9"/>
        <stop offset="0.91" stop-color="#d0def8"/>
    </linearGradient>
    <linearGradient id="linear-gradient-2" x1="961.34" y1="-187.71" x2="961.34" y2="240.33" 
    gradientTransform="matrix(1, 0, 0, -1, -1.34, 756.68)" xlink:href="#linear-gradient"/>
</defs>
<rect id="sky" class="cls-1" width="1919" height="546"/>

<rect id="background-bottom" class="cls-2" x="2.24" y="540.01" width="1915" height="535.69"/>

<path id="mountains" class="cls-2" d="M1,530c-.55,0-.12-35.23,0-41,
.13-6.67,225.66-4.62,225.66-4.62h52.28c10.49-7.89,28.13-10.27,33.87-8l12-5,59.1-3,68.12-11c4.67-1.11,
10.69-3.89,24.22,0l64.93-11a161.36,161.36,0,0,1,42.57,0l19.53-13c7.27-2.91,16.7-4.42,29-4l16-8a54,54,0,0,1,
20-5l24-10c50.43.65,119.36,3.63,135.58,0a242.29,242.29,0,0,1,80.8-8c12.24,1.85,23,2.25,30.79,0l74.39-30c14-8.23,
28-11.53,42.07-5,23,6.52,43,5.78,61.14,0,16.3-6.11,32.67-5.13,49-3l49.09,6c23.19.38,44.8-1,63.12-6,9.57-6,
18.91-8.9,28-9,13.53-11.5,18-16.23,25-11,7.52-19.5,5.52-22.5,30.06-19v-15.2c19.86-3.93,38.23-4.53,54.31,0,7.47-7.4,
18.52-11.23,32.84-11.8H1488c9.3,1.5,18.3,19.14,19.81,23,19.2-6.37,38.6-7.69,58.11-6,26-7.25,50.94-12.87,68.11-7,
53.94-12.91,119.91-17,157.28,0,12.59,4.68,25,8.67,36.06,7,21.2-4.58,40.68-5.81,57.1-1,13.62,2.44,25,.54,35.06-4v224Z"/>

<g id="lake">
    <path class="cls-3" d="M2.05,817.5c20.1,3.09,39.9,8.61,57.5,17,4.51,3.42,23.56,11.83,34.29,13,11.22,2.47,
    29.94,11.61,34.3,16,24.39,16,49.78,28.31,76.67,35,5.39,3.75,20,8.65,27.23,7a562.21,562.21,0,0,1,119,1c73.63,
    12.41,156.83,28.12,182.59,24,7.3-2.5,22.91-2.57,35.3-7,10.77-6.5,26.14-7.09,38.33-6,3.87-.48,7.59-4.38,11.1-13,
    .42-6.6,26.52-15.31,64.56-25,30.11-5.81,43,5.58,86.75,17,16.74,2.81,32.55,4.18,36.32-13,.41-18.5,48.14,6.5,80.69,
    6,11.73.71,23.91,6.5,36.32,15,12.07,12.48,55.51,25.72,88.77,27,17.35-.5,51.9,10.58,78.68,7l73.64-21c19.77-6.46,
    41.35-9.34,64.56-9a141.28,141.28,0,0,1,47.41,19c8.86,6.59,38,6.85,67.58,7l94.83,5c26.15,6.5,90.78-56.5,119-33l76.66,
    36,94.82,8c20.78-1,38.43-8,54.47-18,12.48-5.19,49.3,12.25,80.7,7L1917,941l1-412L2,522.46Z"/>
</g>
</svg>