
      <!--End background div-->
      <!--Clouds, Z-index of 4 url(#linear-gradient)-->
      <svg
        class="clouds"
        xmlns="http://www.w3.org/2000/svg"
        xmlns:xlink="http://www.w3.org/1999/xlink"
        viewBox="0 0 915.53 166.5"
      >
        <defs>
          <style>
            .cls-5 {
              fill: url(#linear-gradient3);
            }
          </style>
          <linearGradient
            id="linear-gradient3"
            x1="647.75"
            y1="89.12"
            x2="647.75"
            y2="255.62"
            gradientUnits="userSpaceOnUse"
          >
            <stop offset="0" stop-color="#fff" />
            <stop offset="0.29" stop-color="#F6F9FE" />
            <stop offset="0.77" stop-color="#DEE8FA" />
            <stop offset="1" stop-color="#D0DEF8" />
          </linearGradient>
        </defs>
        <path
          id="clouds"
          class="cls-5"
          d="M988.17,255.62,190,255c-.74-30,33.17-68.38,54.67-62.88-.33-19.85,24.67-24.08,47.06-34.27,3.79-31.91,15.59-46.82,
              42.94-28.73,21.13-30.7,47.18-23.12,75.23,0,12-14.8,44.81-10.06,83.32,0,5.95-61.5,125.95-44.5,98,0,58.55-17.24,96.91,21.5,69.28,38.5,21.81,49.11,39.34,
              51.52,52.17,0,3.54-13.45,9.17-19.35,17-17.5-14.5-23.5,21.5-30.5,23-9,13.47-2.26,25-.47,32,11,11-18.69,25.7-19.91,43-9,10.33-24.59,29.5-25.68,53.48-14,
              17.65-49.15,72.43-46.32,62.64,0,46.38,2.5,55,11.51,44.38,38.5,19.85,11.69,35.17,24.07,43.5,37.5,49.36,7.16,66.38,27,73.84,50.5Z"
          transform="translate(-189.99 -89.12)"
        />
      </svg>
      
